<svg width="25" height="25" xmlns="http://www.w3.org/2000/svg" xmlns:xlink="http://www.w3.org/1999/xlink" xml:space="preserve" overflow="hidden"><g transform="translate(-726 -278)"><path d="M748.266 297.688 745.01 294.432C744.568 293.99 743.969 293.833 743.396 293.938L742.25 292.792C743.266 291.49 743.865 289.823 743.865 288.052 743.865 283.755 740.349 280.24 736.052 280.24 731.755 280.24 728.24 283.755 728.24 288.052 728.24 292.349 731.755 295.865 736.052 295.865 737.823 295.865 739.464 295.266 740.792 294.25L741.938 295.396C741.833 295.969 741.99 296.568 742.432 297.01L745.688 300.266C746.052 300.63 746.521 300.812 746.99 300.812 747.458 300.812 747.927 300.63 748.292 300.266 748.969 299.536 748.969 298.391 748.266 297.688ZM736.026 294.276C732.589 294.276 729.776 291.464 729.776 288.026 729.776 284.589 732.589 281.776 736.026 281.776 739.464 281.776 742.276 284.589 742.276 288.026 742.276 291.464 739.464 294.276 736.026 294.276Z" fill="#747474"/></g></svg>